<svg width="32" height="32" viewBox="0 0 32 32" fill="none" xmlns="http://www.w3.org/2000/svg">
<path fill-rule="evenodd" clip-rule="evenodd" d="M16 11.4783C13.5027 11.4783 11.4783 13.5027 11.4783 16C11.4783 18.4973 13.5027 20.5217 16 20.5217C18.4973 20.5217 20.5217 18.4973 20.5217 16C20.5217 13.5027 18.4973 11.4783 16 11.4783ZM8 16C8 11.5817 11.5817 8 16 8C20.4183 8 24 11.5817 24 16C24 20.4183 20.4183 24 16 24C11.5817 24 8 20.4183 8 16Z" fill="#FA924A"/>
<path fill-rule="evenodd" clip-rule="evenodd" d="M16.3478 7.60198e-08C17.3083 3.40352e-08 18.0869 0.778635 18.0869 1.73913L18.0869 3.82609C18.0869 4.78658 17.3083 5.56522 16.3478 5.56522C15.3873 5.56522 14.6087 4.78658 14.6087 3.82609L14.6087 1.73913C14.6087 0.778635 15.3873 1.18004e-07 16.3478 7.60198e-08Z" fill="#FA924A"/>
<path fill-rule="evenodd" clip-rule="evenodd" d="M16.3478 26.4348C17.3083 26.4348 18.0869 27.2134 18.0869 28.1739L18.0869 30.2609C18.0869 31.2214 17.3083 32 16.3478 32C15.3873 32 14.6087 31.2214 14.6087 30.2609L14.6087 28.1739C14.6087 27.2134 15.3873 26.4348 16.3478 26.4348Z" fill="#FA924A"/>
<path fill-rule="evenodd" clip-rule="evenodd" d="M1.5204e-07 15.6522C6.80705e-08 14.6917 0.778635 13.9131 1.73913 13.9131L3.82609 13.9131C4.78658 13.9131 5.56522 14.6917 5.56522 15.6522C5.56522 16.6127 4.78658 17.3913 3.82609 17.3913L1.73913 17.3913C0.778636 17.3913 2.36009e-07 16.6127 1.5204e-07 15.6522Z" fill="#FA924A"/>
<path fill-rule="evenodd" clip-rule="evenodd" d="M26.4348 15.6522C26.4348 14.6917 27.2134 13.9131 28.1739 13.9131L30.2609 13.9131C31.2214 13.9131 32 14.6917 32 15.6522C32 16.6127 31.2214 17.3913 30.2609 17.3913L28.1739 17.3913C27.2134 17.3913 26.4348 16.6127 26.4348 15.6522Z" fill="#FA924A"/>
<path fill-rule="evenodd" clip-rule="evenodd" d="M4.93236 4.4402C5.61153 3.76103 6.71269 3.76103 7.39186 4.4402L8.86756 5.9159C9.54673 6.59507 9.54673 7.69623 8.86756 8.3754C8.18839 9.05458 7.08723 9.05458 6.40806 8.3754L4.93236 6.8997C4.25319 6.22053 4.25319 5.11937 4.93236 4.4402Z" fill="#FA924A"/>
<path fill-rule="evenodd" clip-rule="evenodd" d="M23.6245 23.1326C24.3037 22.4534 25.4048 22.4534 26.084 23.1326L27.5597 24.6083C28.2389 25.2875 28.2389 26.3886 27.5597 27.0678C26.8805 27.747 25.7794 27.747 25.1002 27.0678L23.6245 25.5921C22.9453 24.9129 22.9453 23.8118 23.6245 23.1326Z" fill="#FA924A"/>
<path fill-rule="evenodd" clip-rule="evenodd" d="M4.44032 27.0676C3.76115 26.3885 3.76115 25.2873 4.44032 24.6081L5.91602 23.1324C6.5952 22.4533 7.69635 22.4533 8.37552 23.1324C9.0547 23.8116 9.0547 24.9128 8.37552 25.5919L6.89982 27.0676C6.22065 27.7468 5.11949 27.7468 4.44032 27.0676Z" fill="#FA924A"/>
<path fill-rule="evenodd" clip-rule="evenodd" d="M23.1326 8.3755C22.4534 7.69633 22.4534 6.59517 23.1326 5.916L24.6083 4.4403C25.2875 3.76113 26.3886 3.76113 27.0678 4.4403C27.747 5.11947 27.747 6.22063 27.0678 6.8998L25.5921 8.3755C24.9129 9.05468 23.8118 9.05468 23.1326 8.3755Z" fill="#FA924A"/>
</svg>
