<svg width="250" height="202" viewBox="0 0 250 202" fill="none" xmlns="http://www.w3.org/2000/svg">
<path fill-rule="evenodd" clip-rule="evenodd" d="M125 32.5C104.289 32.5 87.5 49.2893 87.5 70C87.5 90.7107 104.289 107.5 125 107.5C145.711 107.5 162.5 90.7107 162.5 70C162.5 49.2893 145.711 32.5 125 32.5ZM82.5 70C82.5 46.5279 101.528 27.5 125 27.5C148.472 27.5 167.5 46.5279 167.5 70C167.5 93.4721 148.472 112.5 125 112.5C101.528 112.5 82.5 93.4721 82.5 70Z" fill="#FA924A"/>
<path fill-rule="evenodd" clip-rule="evenodd" d="M125 -1.09278e-07C126.381 -4.89256e-08 127.5 1.11929 127.5 2.5L127.5 15.5C127.5 16.8807 126.381 18 125 18C123.619 18 122.5 16.8807 122.5 15.5L122.5 2.5C122.5 1.11929 123.619 -1.69631e-07 125 -1.09278e-07Z" fill="#FA924A"/>
<path fill-rule="evenodd" clip-rule="evenodd" d="M125 122C126.381 122 127.5 123.119 127.5 124.5L127.5 137.5C127.5 138.881 126.381 140 125 140C123.619 140 122.5 138.881 122.5 137.5L122.5 124.5C122.5 123.119 123.619 122 125 122Z" fill="#FA924A"/>
<path fill-rule="evenodd" clip-rule="evenodd" d="M55 70C55 68.6193 56.1193 67.5 57.5 67.5L70.5 67.5C71.8807 67.5 73 68.6193 73 70C73 71.3807 71.8807 72.5 70.5 72.5L57.5 72.5C56.1193 72.5 55 71.3807 55 70Z" fill="#FA924A"/>
<path fill-rule="evenodd" clip-rule="evenodd" d="M177 70C177 68.6193 178.119 67.5 179.5 67.5L192.5 67.5C193.881 67.5 195 68.6193 195 70C195 71.3807 193.881 72.5 192.5 72.5L179.5 72.5C178.119 72.5 177 71.3807 177 70Z" fill="#FA924A"/>
<path fill-rule="evenodd" clip-rule="evenodd" d="M75.5025 20.5026C76.4788 19.5263 78.0617 19.5263 79.038 20.5026L88.2304 29.695C89.2067 30.6713 89.2067 32.2542 88.2304 33.2306C87.2541 34.2069 85.6712 34.2069 84.6949 33.2306L75.5025 24.0382C74.5262 23.0619 74.5262 21.4789 75.5025 20.5026Z" fill="#FA924A"/>
<path fill-rule="evenodd" clip-rule="evenodd" d="M161.77 106.769C162.746 105.793 164.329 105.793 165.305 106.769L174.498 115.962C175.474 116.938 175.474 118.521 174.498 119.497C173.521 120.474 171.938 120.474 170.962 119.497L161.77 110.305C160.793 109.329 160.793 107.746 161.77 106.769Z" fill="#FA924A"/>
<path fill-rule="evenodd" clip-rule="evenodd" d="M75.5025 119.498C74.5262 118.521 74.5262 116.938 75.5025 115.962L84.6949 106.77C85.6712 105.793 87.2541 105.793 88.2304 106.77C89.2067 107.746 89.2067 109.329 88.2304 110.305L79.038 119.498C78.0617 120.474 76.4788 120.474 75.5025 119.498Z" fill="#FA924A"/>
<path fill-rule="evenodd" clip-rule="evenodd" d="M161.77 33.2304C160.793 32.2541 160.793 30.6712 161.77 29.6949L170.962 20.5025C171.938 19.5262 173.521 19.5262 174.498 20.5025C175.474 21.4788 175.474 23.0617 174.498 24.038L165.305 33.2304C164.329 34.2067 162.746 34.2067 161.77 33.2304Z" fill="#FA924A"/>
<path fill-rule="evenodd" clip-rule="evenodd" d="M0 155.5C0 154.119 1.11929 153 2.5 153H247.5C248.881 153 250 154.119 250 155.5C250 156.881 248.881 158 247.5 158H2.5C1.11929 158 0 156.881 0 155.5Z" fill="#FA924A"/>
<path fill-rule="evenodd" clip-rule="evenodd" d="M32 170.5C32 169.119 33.1193 168 34.5 168H215.5C216.881 168 218 169.119 218 170.5C218 171.881 216.881 173 215.5 173H34.5C33.1193 173 32 171.881 32 170.5Z" fill="#FA924A"/>
<path fill-rule="evenodd" clip-rule="evenodd" d="M63 185.5C63 184.119 64.1193 183 65.5 183H184.5C185.881 183 187 184.119 187 185.5C187 186.881 185.881 188 184.5 188H65.5C64.1193 188 63 186.881 63 185.5Z" fill="#FA924A"/>
<path fill-rule="evenodd" clip-rule="evenodd" d="M93 199.5C93 198.119 94.1193 197 95.5 197H154.5C155.881 197 157 198.119 157 199.5C157 200.881 155.881 202 154.5 202H95.5C94.1193 202 93 200.881 93 199.5Z" fill="#FA924A"/>
</svg>
