<?xml version="1.0" encoding="utf-8"?>
<svg stroke-opacity="0" version="1.1" width="293px" height="240px" style="shape-rendering:geometricPrecision; text-rendering:geometricPrecision; image-rendering:optimizeQuality; fill-rule:evenodd; clip-rule:evenodd" xmlns="http://www.w3.org/2000/svg" xmlns:bx="https://boxy-svg.com">
  <g>
    <path style="stroke-width: 0px; stroke-miterlimit: 1; opacity: 0;" fill="#fffefe" d="M -0.5,-0.5 C 97.1667,-0.5 194.833,-0.5 292.5,-0.5C 292.5,79.5 292.5,159.5 292.5,239.5C 194.833,239.5 97.1667,239.5 -0.5,239.5C -0.5,159.5 -0.5,79.5 -0.5,-0.5 Z"/>
  </g>
  <g>
    <path style="opacity:1" fill="#fa954f" d="M 148.5,10.5 C 150.167,10.5 151.833,10.5 153.5,10.5C 153.5,16.1667 153.5,21.8333 153.5,27.5C 151.833,27.5 150.167,27.5 148.5,27.5C 148.5,21.8333 148.5,16.1667 148.5,10.5 Z"/>
  </g>
  <g>
    <path style="opacity:1" fill="#fb9956" d="M 197.5,29.5 C 200.68,29.1762 201.847,30.5096 201,33.5C 197.258,37.9441 193.091,41.4441 188.5,44C 187.446,42.6124 187.28,41.1124 188,39.5C 191.371,36.2975 194.538,32.9641 197.5,29.5 Z"/>
  </g>
  <g>
    <path style="opacity:1" fill="#fb9a57" d="M 102.5,29.5 C 107.072,32.5633 111.239,36.23 115,40.5C 115.488,43.3398 114.321,44.5065 111.5,44C 108,40.5 104.5,37 101,33.5C 100.516,31.8067 101.016,30.4733 102.5,29.5 Z"/>
  </g>
  <g/>
  <g>
    <path style="opacity:1" fill="#fa924a" d="M 81.5,77.5 C 86.8437,77.334 92.1771,77.5006 97.5,78C 98.8333,79.3333 98.8333,80.6667 97.5,82C 92.1771,82.4994 86.8437,82.666 81.5,82.5C 81.5,80.8333 81.5,79.1667 81.5,77.5 Z"/>
  </g>
  <g>
    <path style="opacity:1" fill="#fa924a" d="M 203.5,77.5 C 209.176,77.3339 214.843,77.5006 220.5,78C 221.833,79.3333 221.833,80.6667 220.5,82C 215.167,82.6667 209.833,82.6667 204.5,82C 203.62,80.6439 203.286,79.1439 203.5,77.5 Z"/>
  </g>
  <g>
    <path style="opacity:1" fill="#fb9b58" d="M 111.5,115.5 C 114.318,115.495 115.485,116.828 115,119.5C 111.651,122.682 108.484,126.015 105.5,129.5C 101.986,131.265 100.486,130.265 101,126.5C 104.704,122.964 108.204,119.298 111.5,115.5 Z"/>
  </g>
  <g>
    <path style="opacity:1" fill="#fa9853" d="M 188.5,115.5 C 193.072,118.563 197.239,122.23 201,126.5C 201.833,129.667 200.667,130.833 197.5,130C 193.607,126.61 190.273,122.777 187.5,118.5C 188.127,117.583 188.461,116.583 188.5,115.5 Z"/>
  </g>
  <g>
    <path style="opacity:1" fill="#fa954f" d="M 148.5,132.5 C 150.167,132.5 151.833,132.5 153.5,132.5C 153.5,138.167 153.5,143.833 153.5,149.5C 151.833,149.5 150.167,149.5 148.5,149.5C 148.5,143.833 148.5,138.167 148.5,132.5 Z"/>
  </g>
  <g transform="matrix(1, 0, 0, 1, 0, -11.371571)">
    <path style="opacity:1" fill="#fa9046" d="M 27.5,173.5 C 110.167,173.333 192.834,173.5 275.5,174C 276.833,175.333 276.833,176.667 275.5,178C 192.833,178.667 110.167,178.667 27.5,178C 26.2721,176.51 26.2721,175.01 27.5,173.5 Z"/>
  </g>
  <g transform="matrix(1, 0, 0, 1, 0.598504, -12.568579)">
    <path style="opacity:1" fill="#fa9046" d="M 58.5,189.5 C 120.168,189.333 181.834,189.5 243.5,190C 244.833,191.333 244.833,192.667 243.5,194C 181.833,194.667 120.167,194.667 58.5,194C 57.2721,192.51 57.2721,191.01 58.5,189.5 Z"/>
  </g>
  <g transform="matrix(1, 0, 0, 1, 0.299252, -13.167082)">
    <path style="opacity:1" fill="#fa9046" d="M 89.5,205.5 C 130.501,205.333 171.501,205.5 212.5,206C 213.833,207.333 213.833,208.667 212.5,210C 171.5,210.667 130.5,210.667 89.5,210C 88.2721,208.51 88.2721,207.01 89.5,205.5 Z"/>
  </g>
  <g transform="matrix(1, 0, 0, 1, 1.197007, -14.064837)">
    <path style="opacity:1" fill="#fa9046" d="M 120.5,220.5 C 140.836,220.333 161.169,220.5 181.5,221C 182.833,222.333 182.833,223.667 181.5,225C 161.167,225.667 140.833,225.667 120.5,225C 119.272,223.51 119.272,222.01 120.5,220.5 Z"/>
  </g>
  <path d="M 238 205 m -41.831 0 a 41.831 41.831 0 1 0 83.662 0 a 41.831 41.831 0 1 0 -83.662 0 Z M 238 205 m -36.629 0 a 36.629 36.629 0 0 1 73.258 0 a 36.629 36.629 0 0 1 -73.258 0 Z" style="fill: rgb(250, 150, 78);" transform="matrix(-0.557998, 0.829843, -0.829843, -0.557998, 453.842233, -4.311192)" bx:shape="ring 238 205 36.629 36.629 41.831 41.831 1@e3b71e9a"/>
</svg>